HIERARCHY
ROOT Hips
{
  OFFSET 5.80788e-005 67.184 3.4734
  CHANNELS 6 Xposition Yposition Zposition Zrotation Xrotation Yrotation
  JOINT Chest
  {
    OFFSET 0 8.7983 -4.7612
    CHANNELS 6 Xposition Yposition Zposition Zrotation Xrotation Yrotation
    JOINT Chest2
    {
      OFFSET 0 8.0291 0.4195
      CHANNELS 6 Xposition Yposition Zposition Zrotation Xrotation Yrotation
      JOINT Chest3
      {
        OFFSET 0 9.9351 -2.2114
        CHANNELS 6 Xposition Yposition Zposition Zrotation Xrotation Yrotation
        JOINT Neck
        {
          OFFSET 0 22.3885 -0.4656
          CHANNELS 6 Xposition Yposition Zposition Zrotation Xrotation Yrotation
          JOINT Head
          {
            OFFSET -0.0001 12.643 3.4389
            CHANNELS 6 Xposition Yposition Zposition Zrotation Xrotation Yrotation
            End Site
            {
              OFFSET 0.0001 17.6655 0.5274
            }
          }
        }
        JOINT LeftCollar
        {
          OFFSET 2.2603 21.606 7.4023
          CHANNELS 6 Xposition Yposition Zposition Zrotation Xrotation Yrotation
          JOINT LeftShoulder
          {
            OFFSET 13.5163 -1.1332 -5.0146
            CHANNELS 6 Xposition Yposition Zposition Zrotation Xrotation Yrotation
            JOINT LeftElbow
            {
              OFFSET -0.0995 -28.05 -0.2431
              CHANNELS 6 Xposition Yposition Zposition Zrotation Xrotation Yrotation
              JOINT LeftWrist
              {
                OFFSET 0.0679 -23.3996 -0.1402
                CHANNELS 6 Xposition Yposition Zposition Zrotation Xrotation Yrotation
                JOINT LeftFinger1
                {
                  OFFSET 0.7932 -9.069 2.5189
                  CHANNELS 6 Xposition Yposition Zposition Zrotation Xrotation Yrotation
                  JOINT LeftFinger11
                  {
                    OFFSET -0.8272 -3.3923 0.5977
                    CHANNELS 6 Xposition Yposition Zposition Zrotation Xrotation Yrotation
                    JOINT LeftFinger12
                    {
                      OFFSET -0.5649 -2.3158 0.4082
                      CHANNELS 6 Xposition Yposition Zposition Zrotation Xrotation Yrotation
                      End Site
                      {
                        OFFSET -0.4919 -1.6479 0.2673
                      }
                    }
                  }
                }
                JOINT LeftFinger2
                {
                  OFFSET 0.9159 -9.2044 0.2193
                  CHANNELS 6 Xposition Yposition Zposition Zrotation Xrotation Yrotation
                  JOINT LeftFinger21
                  {
                    OFFSET 0.0117 -4.1944 -0.0248
                    CHANNELS 6 Xposition Yposition Zposition Zrotation Xrotation Yrotation
                    JOINT LeftFinger22
                    {
                      OFFSET 0.0071 -2.3249 -0.0142
                      CHANNELS 6 Xposition Yposition Zposition Zrotation Xrotation Yrotation
                      End Site
                      {
                        OFFSET -0.1475 -2.0882 0.0028
                      }
                    }
                  }
                }
                JOINT LeftFinger3
                {
                  OFFSET 0.6113 -8.7231 -2.0637
                  CHANNELS 6 Xposition Yposition Zposition Zrotation Xrotation Yrotation
                  JOINT LeftFinger31
                  {
                    OFFSET -0.1927 -3.8059 -0.2383
                    CHANNELS 6 Xposition Yposition Zposition Zrotation Xrotation Yrotation
                    JOINT LeftFinger32
                    {
                      OFFSET -0.1091 -2.1688 -0.1362
                      CHANNELS 6 Xposition Yposition Zposition Zrotation Xrotation Yrotation
                      End Site
                      {
                        OFFSET -0.2358 -1.9176 -0.0906
                      }
                    }
                  }
                }
                JOINT LeftFinger4
                {
                  OFFSET -0.6151 -8.0947 -3.5641
                  CHANNELS 6 Xposition Yposition Zposition Zrotation Xrotation Yrotation
                  JOINT LeftFinger41
                  {
                    OFFSET -0.4882 -2.341 -0.6462
                    CHANNELS 6 Xposition Yposition Zposition Zrotation Xrotation Yrotation
                    JOINT LeftFinger42
                    {
                      OFFSET -0.3575 -1.7167 -0.4742
                      CHANNELS 6 Xposition Yposition Zposition Zrotation Xrotation Yrotation
                      End Site
                      {
                        OFFSET -0.4187 -1.5237 -0.3496
                      }
                    }
                  }
                }
                JOINT LeftFinger0
                {
                  OFFSET -1.42 -1.8761 1.4223
                  CHANNELS 6 Xposition Yposition Zposition Zrotation Xrotation Yrotation
                  JOINT LeftFinger01
                  {
                    OFFSET -1.1471 -3.4929 2.6334
                    CHANNELS 6 Xposition Yposition Zposition Zrotation Xrotation Yrotation
                    JOINT LeftFinger02
                    {
                      OFFSET -0.823 -2.3 1.6571
                      CHANNELS 6 Xposition Yposition Zposition Zrotation Xrotation Yrotation
                      End Site
                      {
                        OFFSET -0.5822 -1.6914 1.1582
                      }
                    }
                  }
                }
              }
            }
          }
        }
        JOINT RightCollar
        {
          OFFSET -2.2603 21.606 7.4023
          CHANNELS 6 Xposition Yposition Zposition Zrotation Xrotation Yrotation
          JOINT RightShoulder
          {
            OFFSET -13.5187 -1.1334 -5.0155
            CHANNELS 6 Xposition Yposition Zposition Zrotation Xrotation Yrotation
            JOINT RightElbow
            {
              OFFSET 0.0994 -28.0499 -0.2431
              CHANNELS 6 Xposition Yposition Zposition Zrotation Xrotation Yrotation
              JOINT RightWrist
              {
                OFFSET -0.0679 -23.3996 -0.1402
                CHANNELS 6 Xposition Yposition Zposition Zrotation Xrotation Yrotation
                JOINT RightFinger1
                {
                  OFFSET -0.7932 -9.0691 2.5189
                  CHANNELS 6 Xposition Yposition Zposition Zrotation Xrotation Yrotation
                  JOINT RightFinger11
                  {
                    OFFSET 0.8272 -3.3923 0.5977
                    CHANNELS 6 Xposition Yposition Zposition Zrotation Xrotation Yrotation
                    JOINT RightFinger12
                    {
                      OFFSET 0.565 -2.3158 0.4082
                      CHANNELS 6 Xposition Yposition Zposition Zrotation Xrotation Yrotation
                      End Site
                      {
                        OFFSET 0.4919 -1.6479 0.2673
                      }
                    }
                  }
                }
                JOINT RightFinger2
                {
                  OFFSET -0.916 -9.2044 0.2193
                  CHANNELS 6 Xposition Yposition Zposition Zrotation Xrotation Yrotation
                  JOINT RightFinger21
                  {
                    OFFSET -0.0117 -4.1944 -0.0248
                    CHANNELS 6 Xposition Yposition Zposition Zrotation Xrotation Yrotation
                    JOINT RightFinger22
                    {
                      OFFSET -0.0071 -2.3249 -0.0142
                      CHANNELS 6 Xposition Yposition Zposition Zrotation Xrotation Yrotation
                      End Site
                      {
                        OFFSET 0.1475 -2.0882 0.0028
                      }
                    }
                  }
                }
                JOINT RightFinger3
                {
                  OFFSET -0.6113 -8.7231 -2.0637
                  CHANNELS 6 Xposition Yposition Zposition Zrotation Xrotation Yrotation
                  JOINT RightFinger31
                  {
                    OFFSET 0.1927 -3.8059 -0.2383
                    CHANNELS 6 Xposition Yposition Zposition Zrotation Xrotation Yrotation
                    JOINT RightFinger32
                    {
                      OFFSET 0.1091 -2.1688 -0.1362
                      CHANNELS 6 Xposition Yposition Zposition Zrotation Xrotation Yrotation
                      End Site
                      {
                        OFFSET 0.2358 -1.9176 -0.0906
                      }
                    }
                  }
                }
                JOINT RightFinger4
                {
                  OFFSET 0.6151 -8.0947 -3.564
                  CHANNELS 6 Xposition Yposition Zposition Zrotation Xrotation Yrotation
                  JOINT RightFinger41
                  {
                    OFFSET 0.4882 -2.341 -0.6462
                    CHANNELS 6 Xposition Yposition Zposition Zrotation Xrotation Yrotation
                    JOINT RightFinger42
                    {
                      OFFSET 0.3574 -1.7166 -0.4742
                      CHANNELS 6 Xposition Yposition Zposition Zrotation Xrotation Yrotation
                      End Site
                      {
                        OFFSET 0.4187 -1.5237 -0.3496
                      }
                    }
                  }
                }
                JOINT RightFinger0
                {
                  OFFSET 1.4199 -1.8761 1.4221
                  CHANNELS 6 Xposition Yposition Zposition Zrotation Xrotation Yrotation
                  JOINT RightFinger01
                  {
                    OFFSET 1.1472 -3.4929 2.6336
                    CHANNELS 6 Xposition Yposition Zposition Zrotation Xrotation Yrotation
                    JOINT RightFinger02
                    {
                      OFFSET 0.8229 -2.3 1.6571
                      CHANNELS 6 Xposition Yposition Zposition Zrotation Xrotation Yrotation
                      End Site
                      {
                        OFFSET 0.5822 -1.6914 1.1582
                      }
                    }
                  }
                }
              }
            }
          }
        }
      }
    }
  }
  JOINT RightHip
  {
    OFFSET -9.412 3.9771 -0.7758
    CHANNELS 6 Xposition Yposition Zposition Zrotation Xrotation Yrotation
    JOINT RightKnee
    {
      OFFSET -0.7531 -40.938 0
      CHANNELS 6 Xposition Yposition Zposition Zrotation Xrotation Yrotation
      JOINT RightAnkle
      {
        OFFSET 0 -40.1986 0
        CHANNELS 6 Xposition Yposition Zposition Zrotation Xrotation Yrotation
        JOINT RightToe
        {
          OFFSET 0 -4.4182 9.239
          CHANNELS 6 Xposition Yposition Zposition Zrotation Xrotation Yrotation
          End Site
          {
            OFFSET 0 0 6.1981
          }
        }
      }
    }
  }
  JOINT LeftHip
  {
    OFFSET 9.4119 3.9773 -0.7758
    CHANNELS 6 Xposition Yposition Zposition Zrotation Xrotation Yrotation
    JOINT LeftKnee
    {
      OFFSET 0.7532 -40.9383 0
      CHANNELS 6 Xposition Yposition Zposition Zrotation Xrotation Yrotation
      JOINT LeftAnkle
      {
        OFFSET 0 -40.1986 0
        CHANNELS 6 Xposition Yposition Zposition Zrotation Xrotation Yrotation
        JOINT LeftToe
        {
          OFFSET 0 -4.4182 9.239
          CHANNELS 6 Xposition Yposition Zposition Zrotation Xrotation Yrotation
          End Site
          {
            OFFSET 0 0 6.1981
          }
        }
      }
    }
  }
}
MOTION
Frames:	4
Frame Time:	0.0333333
5.80788e-005 67.184 3.4734 0 0 -0 0 8.7983 -4.7612 0 0 -0 0 8.0291 0.4195 0 0 -0 0 9.9351 -2.2114 0 0 -0 0 22.3885 -0.4656 0 0 -0 -0.0001 12.643 3.4389 0 0 -0 2.2603 21.606 7.4023 0 0 -12.5014 13.5163 -1.1332 -5.0146 88.1196 14.2451 10.6914 -0.0995 -28.05 -0.2431 -0.00160068 -0.00239207 0.000740045 0.0679 -23.3996 -0.1402 -8.4365e-005 7.00714e-005 -9.52055e-007 0.7932 -9.069 2.5189 9.93923e-017 -1.98785e-016 -1.59028e-015 -0.8272 -3.3923 0.5977 9.93923e-017 -5.96354e-016 -1.59028e-015 -0.5649 -2.3158 0.4082 -9.93923e-017 -5.96354e-016 -1.59028e-015 0.9159 -9.2044 0.2193 9.93923e-017 -1.98785e-016 -1.59028e-015 0.0117 -4.1944 -0.0248 -0.0128176 0.00232552 8.52707e-005 0.0071 -2.3249 -0.0142 9.93923e-017 5.96354e-016 -0 0.6113 -8.7231 -2.0637 9.93923e-017 -1.98785e-016 -1.59028e-015 -0.1927 -3.8059 -0.2383 -0.0160551 0.00299681 0.000857156 -0.1091 -2.1688 -0.1362 -2.48481e-016 0 3.18055e-015 -0.6151 -8.0947 -3.5641 9.93923e-017 -1.98785e-016 -1.59028e-015 -0.4882 -2.341 -0.6462 -0.0125865 0.0031206 0.00282719 -0.3575 -1.7167 -0.4742 0 1.98785e-016 -0 -1.42 -1.8761 1.4223 9.93923e-017 -1.98785e-016 -1.59028e-015 -1.1471 -3.4929 2.6334 9.93923e-017 -5.96354e-016 -1.59028e-015 -0.823 -2.3 1.6571 -9.93923e-017 -5.96354e-016 -1.59028e-015 -2.2603 21.606 7.4023 -0.865644 0.16582 7.03859 -13.5187 -1.1334 -5.0155 -88.0329 10.2057 -10.5567 0.0994 -28.0499 -0.2431 0.0015593 -0.00248883 -0.000788628 -0.0679 -23.3996 -0.1402 7.87605e-005 4.10553e-005 1.24965e-005 -0.7932 -9.0691 2.5189 -3.97569e-016 -7.95139e-016 3.18055e-015 0.8272 -3.3923 0.5977 -1.98785e-016 -3.97569e-016 3.18055e-015 0.565 -2.3158 0.4082 -1.98785e-016 0 3.18055e-015 -0.916 -9.2044 0.2193 -3.97569e-016 -7.95139e-016 3.18055e-015 -0.0117 -4.1944 -0.0248 0.0129473 0.00231697 -8.70038e-005 -0.0071 -2.3249 -0.0142 9.93923e-017 -7.95139e-016 1.59028e-015 -0.6113 -8.7231 -2.0637 -3.97569e-016 -7.95139e-016 3.18055e-015 0.1927 -3.8059 -0.2383 0.0163314 0.00303369 -0.000872333 0.1091 -2.1688 -0.1362 3.97569e-016 7.95139e-016 -3.18055e-015 0.6151 -8.0947 -3.564 -3.97569e-016 -7.95139e-016 3.18055e-015 0.4882 -2.341 -0.6462 0.0145763 0.00367772 -0.00326275 0.3574 -1.7166 -0.4742 9.93923e-017 -3.97569e-016 -0 1.4199 -1.8761 1.4221 -3.97569e-016 -7.95139e-016 3.18055e-015 1.1472 -3.4929 2.6336 -1.98785e-016 -3.97569e-016 3.18055e-015 0.8229 -2.3 1.6571 -1.98785e-016 0 3.18055e-015 -9.412 3.9771 -0.7758 3.42485 1.36937 -0.0640303 -0.7531 -40.938 0 0.000136572 0.69354 0.00145564 1.77636e-015 -40.1986 -1.11022e-016 -3.42573 -2.06297 -0.0607933 8.88178e-016 -4.4182 9.239 -3.19502e-024 0 -1.48106e-024 9.4119 3.9773 -0.7758 -3.42498 1.36123 0.0639712 0.7532 -40.9383 2.22045e-016 -6.769e-005 0.712612 -0.0012277 8.88179e-016 -40.1986 0 3.42582 -2.07388 0.0612819 -8.88178e-016 -4.4182 9.239 2.55305e-023 0 -2.31416e-026 
-9.6524 38.098 49.0592 2.62191e-008 52.8197 -3.38146e-008 -1.77636e-015 8.7983 -4.7612 -0.272238 2.92783 -0.10953 0 8.0291 0.4195 -0.539922 5.85609 -0.205511 -1.77636e-015 9.9351 -2.2114 -0.539923 5.8561 -0.205511 0 22.3885 -0.4656 0.278469 -18.1288 0.115582 -0.0001 12.643 3.4389 0.162963 -16.4973 0.0613826 2.2603 21.606 7.4023 -8.768 -0.053559 -19.4519 13.5163 -1.1332 -5.0146 60.737 -36.1069 43.7148 -0.0995 -28.05 -0.2431 1.07836 -29.9873 -38.0294 0.0679 -23.3996 -0.1402 29.3897 -4.76647 -3.16513 0.7932 -9.069 2.5189 6.836e-006 -4.35974e-006 -1.24454e-005 -0.8272 -3.3923 0.5977 0 0 -0 -0.5649 -2.3158 0.4082 -4.88692e-006 -2.55079e-006 -3.72628e-006 0.9159 -9.2044 0.2193 6.836e-006 -4.35974e-006 -1.24454e-005 0.0117 -4.1944 -0.0248 -0.012799 0.00232831 8.78034e-005 0.0071 -2.3249 -0.0142 -8.48187e-006 2.38382e-006 9.15089e-006 0.6113 -8.7231 -2.0637 6.836e-006 -4.35974e-006 -1.24454e-005 -0.1927 -3.8059 -0.2383 -0.0160689 0.0029962 0.000854327 -0.1091 -2.1688 -0.1362 -2.80038e-006 3.16936e-006 1.14462e-005 -0.6151 -8.0947 -3.5641 6.836e-006 -4.35974e-006 -1.24454e-005 -0.4882 -2.341 -0.6462 -0.0126067 0.00312184 0.00283343 -0.3575 -1.7167 -0.4742 3.18055e-015 9.54166e-015 4.77083e-015 -1.42 -1.8761 1.4223 6.836e-006 -4.35974e-006 -1.24454e-005 -1.1471 -3.4929 2.6334 0 0 -0 -0.823 -2.3 1.6571 -4.88692e-006 -2.55079e-006 -3.72628e-006 -2.2603 21.606 7.4023 7.09424 0.311888 15.8566 -13.5187 -1.1334 -5.0155 -59.1518 -37.2788 -40.7551 0.0994 -28.0499 -0.2431 -9.62645 -29.0844 30.0771 -0.0679 -23.3996 -0.1402 -25.8488 -4.11511 2.96026 -0.7932 -9.0691 2.5189 -5.07352e-006 2.42787e-006 -3.41723e-006 0.8272 -3.3923 0.5977 3.18055e-015 -3.18055e-015 -0 0.565 -2.3158 0.4082 6.36111e-015 0 -3.18055e-015 -0.916 -9.2044 0.2193 -5.07352e-006 2.42787e-006 -3.41723e-006 -0.0117 -4.1944 -0.0248 0.0129973 0.00233365 -8.88041e-005 -0.0071 -2.3249 -0.0142 1.63953e-006 -2.72532e-006 3.14196e-007 -0.6113 -8.7231 -2.0637 -5.07352e-006 2.42787e-006 -3.41723e-006 0.1927 -3.8059 -0.2383 0.0163852 0.00304977 -0.000882813 0.1091 -2.1688 -0.1362 -3.18055e-015 -6.36111e-015 3.18055e-015 0.6151 -8.0947 -3.564 -5.07352e-006 2.42787e-006 -3.41723e-006 0.4882 -2.341 -0.6462 0.0146265 0.0036969 -0.00326918 0.3574 -1.7166 -0.4742 6.36111e-015 3.18055e-015 -1.59028e-014 1.4199 -1.8761 1.4221 -5.07352e-006 2.42787e-006 -3.41723e-006 1.1472 -3.4929 2.6336 3.18055e-015 -3.18055e-015 -0 0.8229 -2.3 1.6571 6.36111e-015 0 -3.18055e-015 -9.412 3.9771 -0.7758 -49.8892 -64.7185 -36.2836 -0.7531 -40.938 1.42109e-014 119.548 85.0406 -125.297 -3.55271e-015 -40.1986 0 -15.7668 3.13889 3.06438 -7.10543e-015 -4.4182 9.239 -3.39566e-006 -1.60779e-006 -7.68232e-007 9.4119 3.9773 -0.7758 50.5632 -64.6164 37.3812 0.7532 -40.9383 0 -119.341 84.9884 125.116 0 -40.1986 0 16.3478 3.10086 -3.28697 0 -4.4182 9.239 -1.6154e-006 1.41234e-007 3.77196e-007 
-13.9947 27.0425 70.2858 4.59586e-007 76.5886 -2.91087e-007 0 8.7983 -4.7612 -0.434853 4.29201 -0.131926 -1.77636e-015 8.0291 0.4195 -0.863412 8.58485 -0.232057 0 9.9351 -2.2114 -0.863415 8.58487 -0.232058 0 22.3885 -0.4656 0.428862 -25.8949 0.17449 -0.0001 12.643 3.4389 0.249691 -24.339 0.095219 2.2603 21.606 7.4023 -12.6411 -0.228714 -22.6306 13.5163 -1.1332 -5.0146 55.0878 -59.3763 62.9996 -0.0995 -28.05 -0.2431 0.768895 -43.7524 -56.0339 0.0679 -23.3996 -0.1402 42.8084 -6.38378 -3.75435 0.7932 -9.069 2.5189 1.59028e-015 -3.18055e-015 1.59028e-015 -0.8272 -3.3923 0.5977 7.95139e-015 6.36111e-015 -0 -0.5649 -2.3158 0.4082 1.59028e-015 -3.18055e-015 -0 0.9159 -9.2044 0.2193 1.59028e-015 -3.18055e-015 1.59028e-015 0.0117 -4.1944 -0.0248 -0.0128418 0.00232722 8.56667e-005 0.0071 -2.3249 -0.0142 -3.53113e-031 3.18055e-015 6.36111e-015 0.6113 -8.7231 -2.0637 1.59028e-015 -3.18055e-015 1.59028e-015 -0.1927 -3.8059 -0.2383 -0.0160221 0.00299231 0.000858135 -0.1091 -2.1688 -0.1362 3.18055e-015 3.18055e-015 7.95139e-015 -0.6151 -8.0947 -3.5641 1.59028e-015 -3.18055e-015 1.59028e-015 -0.4882 -2.341 -0.6462 -0.0125806 0.00312743 0.00282842 -0.3575 -1.7167 -0.4742 4.77083e-015 -1.27222e-014 -3.18055e-015 -1.42 -1.8761 1.4223 1.59028e-015 -3.18055e-015 1.59028e-015 -1.1471 -3.4929 2.6334 7.95139e-015 6.36111e-015 -0 -0.823 -2.3 1.6571 1.59028e-015 -3.18055e-015 -0 -2.2603 21.606 7.4023 10.577 0.230897 19.8839 -13.5187 -1.1334 -5.0155 -48.7346 -59.2971 -55.4466 0.0994 -28.0499 -0.2431 -13.8357 -42.4028 43.8222 -0.0679 -23.3996 -0.1402 -37.6433 -5.49183 3.63848 -0.7932 -9.0691 2.5189 -3.18055e-015 3.18055e-015 -6.36111e-015 0.8272 -3.3923 0.5977 -3.18055e-015 -9.54166e-015 -3.18055e-015 0.565 -2.3158 0.4082 -6.36111e-015 -6.36111e-015 -3.18055e-015 -0.916 -9.2044 0.2193 -3.18055e-015 3.18055e-015 -6.36111e-015 -0.0117 -4.1944 -0.0248 0.0129363 0.00230537 -7.85662e-005 -0.0071 -2.3249 -0.0142 -9.54166e-015 -9.54166e-015 6.36111e-015 -0.6113 -8.7231 -2.0637 -3.18055e-015 3.18055e-015 -6.36111e-015 0.1927 -3.8059 -0.2383 0.0162753 0.00302281 -0.000862321 0.1091 -2.1688 -0.1362 3.18055e-015 -6.36111e-015 3.18055e-015 0.6151 -8.0947 -3.564 -3.18055e-015 3.18055e-015 -6.36111e-015 0.4882 -2.341 -0.6462 0.0144869 0.00365439 -0.00324268 0.3574 -1.7166 -0.4742 3.18055e-015 0 -0 1.4199 -1.8761 1.4221 -3.18055e-015 3.18055e-015 -6.36111e-015 1.1472 -3.4929 2.6336 -3.18055e-015 -9.54166e-015 -3.18055e-015 0.8229 -2.3 1.6571 -6.36111e-015 -6.36111e-015 -3.18055e-015 -9.412 3.9771 -0.7758 -138.945 -68.8548 -113.499 -0.7531 -40.938 0 168.427 47.3925 -175.483 0 -40.1986 0 -21.0583 4.92929 3.29329 7.10543e-015 -4.4182 9.239 2.60415e-007 -2.16254e-006 -3.23618e-006 9.4119 3.9773 -0.7758 138.432 -68.1321 113.377 0.7532 -40.9383 -1.42109e-014 -168.319 47.3632 175.364 3.55271e-015 -40.1986 0 21.9237 4.90806 -3.61952 0 -4.4182 9.239 5.68842e-007 -2.90425e-006 1.86158e-006 
-13.0298 29.4108 65.4861 5.98977e-008 71.3066 -7.38846e-008 -1.77636e-015 8.7983 -4.7612 -0.397843 4.09311 -0.13127 -1.77636e-015 8.0291 0.4195 -0.789292 8.18701 -0.234862 0 9.9351 -2.2114 -0.789293 8.18702 -0.234862 0 22.3885 -0.4656 0.391288 -23.2981 0.153908 -0.0001 12.643 3.4389 0.231173 -23.5251 0.091285 2.2603 21.606 7.4023 -11.6048 -0.527478 -22.0375 13.5163 -1.1332 -5.0146 55.4663 -54.2287 57.9155 -0.0995 -28.05 -0.2431 0.931415 -40.6816 -51.9422 0.0679 -23.3996 -0.1402 39.973 -5.97831 -3.47339 0.7932 -9.069 2.5189 6.71432e-006 2.32792e-007 -6.89231e-007 -0.8272 -3.3923 0.5977 -7.94503e-031 -9.54166e-015 -4.77083e-015 -0.5649 -2.3158 0.4082 -0 -6.36111e-015 -0 0.9159 -9.2044 0.2193 6.71432e-006 2.32792e-007 -6.89231e-007 0.0117 -4.1944 -0.0248 -0.0128608 0.00233254 8.50899e-005 0.0071 -2.3249 -0.0142 -3.53113e-031 3.18055e-015 6.36111e-015 0.6113 -8.7231 -2.0637 6.71432e-006 2.32792e-007 -6.89231e-007 -0.1927 -3.8059 -0.2383 -0.0160081 0.00298317 0.000852265 -0.1091 -2.1688 -0.1362 7.95139e-015 -3.18055e-015 -0 -0.6151 -8.0947 -3.5641 6.71432e-006 2.32792e-007 -6.89231e-007 -0.4882 -2.341 -0.6462 -0.012519 0.00310894 0.00281947 -0.3575 -1.7167 -0.4742 1.85384e-030 -9.54166e-015 1.11319e-014 -1.42 -1.8761 1.4223 6.71432e-006 2.32792e-007 -6.89231e-007 -1.1471 -3.4929 2.6334 -7.94503e-031 -9.54166e-015 -4.77083e-015 -0.823 -2.3 1.6571 -0 -6.36111e-015 -0 -2.2603 21.606 7.4023 9.62515 -0.0648727 19.1201 -13.5187 -1.1334 -5.0155 -50.7542 -54.3808 -51.941 0.0994 -28.0499 -0.2431 -12.9222 -39.4333 40.7428 -0.0679 -23.3996 -0.1402 -35.1649 -5.12018 3.30242 -0.7932 -9.0691 2.5189 -6.36111e-015 -3.18055e-015 -0 0.8272 -3.3923 0.5977 -3.18055e-015 3.18055e-015 -3.18055e-015 0.565 -2.3158 0.4082 -9.54166e-015 0 3.18055e-015 -0.916 -9.2044 0.2193 -6.36111e-015 -3.18055e-015 -0 -0.0117 -4.1944 -0.0248 0.0129658 0.00231283 -8.31599e-005 -0.0071 -2.3249 -0.0142 3.18055e-015 3.18055e-015 -3.18055e-015 -0.6113 -8.7231 -2.0637 -6.36111e-015 -3.18055e-015 -0 0.1927 -3.8059 -0.2383 0.0163182 0.00303829 -0.000859012 0.1091 -2.1688 -0.1362 -3.18055e-015 0 3.18055e-015 0.6151 -8.0947 -3.564 -6.36111e-015 -3.18055e-015 -0 0.4882 -2.341 -0.6462 0.01452 0.00366315 -0.00325036 0.3574 -1.7166 -0.4742 3.18055e-015 3.18055e-015 9.54166e-015 1.4199 -1.8761 1.4221 -6.36111e-015 -3.18055e-015 -0 1.1472 -3.4929 2.6336 -3.18055e-015 3.18055e-015 -3.18055e-015 0.8229 -2.3 1.6571 -9.54166e-015 0 3.18055e-015 -9.412 3.9771 -0.7758 -119.863 -71.2243 -97.0584 -0.7531 -40.938 0 166.923 56.0637 -173.644 -7.10543e-015 -40.1986 3.55271e-015 -20.0086 4.72256 3.46003 7.10543e-015 -4.4182 9.239 1.49926e-006 1.64369e-006 3.06864e-007 9.4119 3.9773 -0.7758 119.93 -70.5786 97.5409 0.7532 -40.9383 0 -166.796 56.0347 173.518 1.77636e-015 -40.1986 -4.44089e-016 20.8088 4.6924 -3.76236 3.55271e-015 -4.4182 9.239 -2.12502e-006 4.94258e-007 1.1421e-006 
